<?xml version="1.0" standalone="no"?>
<!DOCTYPE svg PUBLIC "-//W3C//DTD SVG 1.1//EN" "http://www.w3.org/Graphics/SVG/1.1/DTD/svg11.dtd">
<svg version="1.1" xmlns="http://www.w3.org/2000/svg" viewBox="0 0 420 420" width="1260" height="1260"><!-- svg-source:excalidraw --><metadata></metadata><defs><style class="style-fonts">
      </style></defs><rect x="0" y="0" width="420" height="420" fill="#ffffff"></rect><g stroke-linecap="round" transform="translate(10 10) rotate(0 200 200)"><path d="M118.25 17.81 C132.61 7.93, 153.91 4.59, 171.77 2.07 C189.62 -0.44, 207.71 0.22, 225.37 2.7 C243.03 5.17, 261.24 9.88, 277.74 16.93 C294.24 23.98, 310.24 33.99, 324.37 45.02 C338.51 56.04, 352.06 68.75, 362.58 83.09 C373.09 97.43, 381.41 113.98, 387.45 131.08 C393.49 148.19, 397.21 167.8, 398.81 185.72 C400.41 203.64, 400.53 221.02, 397.04 238.6 C393.56 256.19, 386.38 275.15, 377.9 291.24 C369.42 307.33, 358.44 321.86, 346.18 335.14 C333.92 348.42, 319.7 361.39, 304.37 370.9 C289.03 380.41, 271.39 387.21, 254.15 392.19 C236.92 397.17, 218.76 400.75, 200.96 400.78 C183.16 400.81, 164.6 397.26, 147.36 392.38 C130.11 387.51, 112.96 380.71, 97.48 371.52 C82 362.32, 66.91 350.19, 54.49 337.23 C42.07 324.28, 31.31 309.62, 22.96 293.79 C14.62 277.96, 8.27 260.04, 4.42 242.23 C0.57 224.42, -1.3 204.79, -0.15 186.94 C1.01 169.09, 5.19 152.06, 11.34 135.12 C17.49 118.18, 26.38 100.35, 36.74 85.3 C47.1 70.25, 58.38 56.86, 73.49 44.8 C88.6 32.75, 117.02 18.14, 127.4 12.96 C137.77 7.78, 134.42 10.34, 135.75 13.73 M230.75 2.66 C247.99 1.85, 267.17 9.63, 283.5 16.94 C299.83 24.26, 315.19 34.74, 328.75 46.57 C342.3 58.4, 354.43 72.74, 364.82 87.93 C375.2 103.13, 385.4 120.5, 391.03 137.74 C396.67 154.99, 397.79 173.39, 398.61 191.39 C399.42 209.38, 399.81 228.54, 395.91 245.72 C392.01 262.91, 383.9 278.75, 375.23 294.49 C366.57 310.23, 356.47 326.86, 343.91 340.16 C331.36 353.47, 315.43 365.6, 299.91 374.32 C284.39 383.03, 268.24 387.96, 250.78 392.45 C233.32 396.93, 213.35 401.44, 195.15 401.24 C176.95 401.04, 158.61 396.78, 141.57 391.24 C124.53 385.7, 108.14 377.61, 92.92 368 C77.7 358.39, 62.2 347, 50.26 333.58 C38.31 320.17, 29.11 303.42, 21.25 287.52 C13.39 271.62, 6.63 255.67, 3.08 238.2 C-0.46 220.74, -1.55 200.73, -0.01 182.72 C1.54 164.7, 5.79 147.04, 12.33 130.12 C18.87 113.21, 28.48 95.77, 39.22 81.24 C49.96 66.71, 62.66 54.15, 76.79 42.94 C90.92 31.72, 107.13 20.73, 124.01 13.95 C140.89 7.16, 160.18 4.23, 178.05 2.22 C195.92 0.2, 222.28 0.92, 231.22 1.86 C240.15 2.8, 232.21 4.69, 231.66 7.85" stroke="none" stroke-width="0" fill="#ffffff"></path><path d="M285.82 20.56 C302.5 24.92, 317.73 37.41, 331.51 49.02 C345.3 60.62, 358.64 75.11, 368.53 90.18 C378.42 105.25, 385.64 122.15, 390.85 139.45 C396.05 156.76, 399.11 175.94, 399.76 194 C400.41 212.05, 399.16 230.17, 394.75 247.77 C390.33 265.38, 382.15 283.86, 373.25 299.62 C364.35 315.38, 353.99 329.82, 341.34 342.35 C328.69 354.87, 313.17 366.04, 297.34 374.77 C281.51 383.5, 263.95 390.68, 246.36 394.74 C228.76 398.8, 209.55 399.81, 191.76 399.13 C173.97 398.45, 156.56 395.89, 139.62 390.67 C122.68 385.45, 105.4 377.68, 90.13 367.81 C74.87 357.93, 60.05 345.31, 48.04 331.42 C36.03 317.53, 25.5 300.94, 18.08 284.47 C10.65 267.99, 6.23 250.05, 3.47 232.56 C0.71 215.07, -0.28 197.31, 1.49 179.52 C3.26 161.74, 7.41 142.73, 14.09 125.85 C20.77 108.96, 30.69 92.53, 41.59 78.22 C52.49 63.9, 65.37 50.57, 79.49 39.96 C93.62 29.36, 109.49 21.2, 126.35 14.61 C143.22 8.02, 162.58 2.51, 180.68 0.42 C198.78 -1.67, 215.89 -1.8, 234.94 2.06 C254 5.92, 283.97 18.41, 295.01 23.59 C306.04 28.76, 302.74 30.13, 301.15 33.13 M286.17 17.88 C303.11 22.35, 317.76 37.1, 331.23 48.98 C344.7 60.87, 357.28 74.3, 367 89.19 C376.72 104.09, 384.12 120.96, 389.54 138.34 C394.95 155.72, 398.43 175.33, 399.49 193.47 C400.55 211.6, 400.08 229.99, 395.89 247.15 C391.71 264.31, 383.39 280.77, 374.39 296.43 C365.38 312.09, 354.34 328.06, 341.86 341.1 C329.39 354.14, 315.11 365.75, 299.54 374.67 C283.96 383.58, 266.13 390.51, 248.42 394.57 C230.71 398.63, 211.51 399.59, 193.26 399.01 C175.01 398.43, 155.93 396.52, 138.95 391.1 C121.96 385.68, 106.06 376.28, 91.37 366.5 C76.67 356.73, 62.89 345.83, 50.8 332.43 C38.7 319.03, 26.65 302.57, 18.79 286.11 C10.93 269.66, 6.71 251.28, 3.63 233.67 C0.56 216.06, -1.42 198.43, 0.35 180.46 C2.13 162.48, 7.47 142.49, 14.28 125.82 C21.1 109.14, 30.41 94.72, 41.24 80.41 C52.08 66.1, 64.99 50.94, 79.28 39.97 C93.56 29.01, 110.12 21.33, 126.95 14.63 C143.78 7.93, 162.42 1.8, 180.27 -0.22 C198.13 -2.25, 216.63 -0.64, 234.09 2.5 C251.56 5.63, 276.95 15.01, 285.08 18.58 C293.22 22.16, 284.3 21.05, 282.89 23.93" stroke="#1e1e1e" stroke-width="2" fill="none"></path></g><g stroke-linecap="round" transform="translate(110 110) rotate(0 100 100)"><path d="M32 0 C63.15 -1.14, 91.62 0.31, 168 0 M32 0 C83.84 0.72, 134.78 0.56, 168 0 M168 0 C189.3 1.42, 199.98 11.4, 200 32 M168 0 C188.1 -1.4, 200.44 12.89, 200 32 M200 32 C197.9 84.47, 197.99 134.44, 200 168 M200 32 C201.58 62.36, 201.66 91.03, 200 168 M200 168 C200.3 189.61, 187.7 199.31, 168 200 M200 168 C198.75 188.06, 189.35 201.98, 168 200 M168 200 C119.58 202.54, 68.01 199.63, 32 200 M168 200 C123.82 199.88, 76.98 198.85, 32 200 M32 200 C12.37 199.11, -0.32 189.6, 0 168 M32 200 C9.45 198.62, -0.01 190.27, 0 168 M0 168 C-0.74 136.34, -0.47 104.94, 0 32 M0 168 C0.56 124.52, -0.52 81.89, 0 32 M0 32 C1.14 10.76, 9.89 1.51, 32 0 M0 32 C2.24 10.51, 8.58 1.96, 32 0" stroke="#1e1e1e" stroke-width="2" fill="none"></path></g></svg>